<?xml version="1.0" encoding="UTF-8" standalone="no"?>
<svg xmlns="http://www.w3.org/2000/svg" height="341px" width="341px" version="1.1" xmlns:xlink="http://www.w3.org/1999/xlink" viewBox="0 0 341 341"><!-- Generator: Sketch 3.7.2 (28276) - http://www.bohemiancoding.com/sketch -->
 <title>snappy-ubuntu-core-logo-01</title>
 <desc>Created with Sketch.</desc>
 <g id="Page-1" fill-rule="evenodd" fill="none">
  <g id="snappy-ubuntu-core-logo-01">
   <circle id="Oval" cy="170.1" cx="170.1" r="170.1" fill="#E95420"/>
   <polygon id="Shape" points="192.4 115.8 174.1 124.9 192.4 134.1" fill="#fff"/>
   <path id="Shape" fill="#fff" d="m192.4 111.9v-10.9c0-0.2 0-0.3 0.1-0.4 0 0 0-0.1 0.1-0.1 0-0.1 0.1-0.2 0.1-0.3s0.1-0.1 0.1-0.1l0.2-0.2 0.1-0.1 0.1-0.1h0.1 0.1l8.9-4.4-31.9-16-43.8 21.9 43.8 21.9 22-11.2z"/>
   <polygon id="Shape" points="76.7 219.1 121 241.2 121 197.4 76.7 175.3" fill="#fff"/>
   <polygon id="Shape" points="118.8 148.7 76.7 127.7 76.7 169.8 76.7 171.5 76.9 171.6 78.8 172.5 121 193.6 121 151.5 121 149.8 120.8 149.7" fill="#fff"/>
   <polygon id="Shape" points="166.5 124.9 145.7 114.5 137.8 110.6 122.7 103 122.7 103 121 103.8 78.8 124.9 120.5 145.8 121 146 122.7 146.8 124.4 146" fill="#fff"/>
   <polygon id="Shape" points="219.6 241.2 263.8 219.1 263.8 175.3 219.6 197.4" fill="#fff"/>
   <path id="Shape" fill="#fff" d="m241.7 174.2c-0.1 0-0.3 0-0.4-0.1h-0.1c-0.1 0-0.1 0-0.2-0.1l-21.3-10.7v30.2l42.1-21.1-8.1-4.1-11.1 5.6c-0.1 0-0.1 0-0.2 0.1h-0.1c-0.3 0.2-0.5 0.2-0.6 0.2z"/>
   <polygon id="Shape" points="172.2 221.1 172 221.2 172 222.9 172 265 214.1 244 216 243 216.2 242.9 216.2 241.2 216.2 199.1 174.1 220.1" fill="#fff"/>
   <polygon id="Shape" points="166.5 220.1 124.4 199.1 124.4 241.2 124.4 242.9 124.6 243 126.5 244 168.6 265 168.6 222.9 168.6 221.2 168.4 221.1" fill="#fff"/>
   <polygon id="Shape" points="243.4 126 243.4 159.6 243.4 161.5 243.4 163.4 243.4 169.8 249.8 166.6 251.7 165.6 253.6 164.7 287.6 147.7 287.6 103.8" fill="#fff"/>
   <path id="Shape" fill="#fff" d="m219.6 149.6v10l20.4 10.2v-43.8l-20.4-10.2-1.7-0.9-1.7-0.9-10.2-5.1-1.9-1-1.9-1-6.4-3.2v31.9l20.4 10.2 1.7 0.9 0.8 0.4h0.1 0.1c0.1 0 0.1 0.1 0.1 0.1 0.1 0 0.1 0.1 0.1 0.1l0.2 0.2 0.1 0.1c0.1 0.1 0.1 0.2 0.1 0.3 0 0 0 0.1 0.1 0.1 0 0.1 0.1 0.3 0.1 0.5l-0.1 1.1z"/>
   <polygon id="Shape" points="206 105.1 207.9 106.1 209.8 107 216.2 110.2 217.9 111.1 219.6 111.9 241.7 123 285.5 101.1 241.7 79.2 209.8 95.1 207.9 96.1 206 97 197.9 101.1" fill="#fff"/>
   <polygon id="Shape" points="207.9 155.6 206 156.6 174.1 172.5 172.2 173.5 172.2 173.5 172 173.6 172 173.6 172 175.3 172 175.3 172 207 172 217.4 214.1 196.3 216 195.4 216.2 195.3 216.2 193.6 216.2 161.7 216.2 159.8 216.2 157.9 216.2 151.5 209.8 154.7" fill="#fff"/>
   <polygon id="Shape" points="168.4 173.5 166.5 172.5 166.5 172.5 145.7 162.1 124.4 151.5 124.4 193.6 124.4 193.6 124.4 195.3 124.4 195.3 124.6 195.4 124.6 195.4 126.5 196.3 146.5 206.3 168.6 217.4 168.6 175.3 168.6 175.3 168.6 173.6" fill="#fff"/>
   <polygon id="Shape" points="202.2 154.7 204.1 153.7 206 152.8 214.1 148.7 214.1 148.7 195.8 139.6 194.1 138.7 192.4 137.9 172 127.7 172 127.7 170.3 126.8 170.3 126.8 168.6 127.7 126.5 148.7 126.5 148.7 126.5 148.7 146.5 158.7 168.6 169.8 170.3 170.6 172 169.8" fill="#fff"/>
  </g>
 </g>
</svg>
