<?xml version="1.0" encoding="UTF-8" standalone="no"?>
<!-- Generator: Adobe Illustrator 19.1.0, SVG Export Plug-In . SVG Version: 6.00 Build 0)  -->
<svg id="Layer_1" style="enable-background:new 0 0 213.8 213.8" xmlns="http://www.w3.org/2000/svg" xml:space="preserve" height="213.8px" viewBox="0 0 213.8 213.8" width="213.8px" version="1.1" y="0px" x="0px" xmlns:xlink="http://www.w3.org/1999/xlink">
<style type="text/css">
	.st0{fill:#E85525;}
	.st1{fill:#FFFFFF;}
</style>
<path class="st0" d="m213.8 106.9c0 59-47.9 106.9-106.9 106.9s-106.9-47.8-106.9-106.9c0-59 47.9-106.9 106.9-106.9s106.9 47.9 106.9 106.9"/>
<path class="st1" d="m137.9 121.9v-19l13.4 6.7h0.1 0.1 0.3 0.3 0.1 0.1l7-3.5 5.1 2.5-26.5 13.3zm-89.8-11.5l27.8 13.9v27.5l-27.8-13.8v-27.6zm31.3-16.7l26.5-13.2 1.1-0.5 1.1 0.5 12.8 6.4 1.1 0.5 1 0.6 11.5 5.8-5.1 2.5-1.2 0.6-1.2 0.6-19 9.5-1.1 0.5-1.1-0.5-26.4-13.3zm41.4-9.2l-11.5-5.8 11.5-5.8v11.6zm-41.4 39.2l-1.2-0.6-0.1-0.1v-27.5l13.4 6.7 13.1 6.5 1.2 0.6 0.1 0.1v27.6l-26.5-13.3zm56.4-23v22.4l-0.1 0.1-1.2 0.6-26.5 13.1v-27.6l0.1-0.1 1.2-0.6 20.1-10 1.2-0.6 1.2-0.6 4-2v5.3zm15 0v6.3l-12.8-6.4v-6.8-0.3-0.1c0-0.1 0-0.1-0.1-0.2 0 0 0-0.1-0.1-0.1l-0.1-0.1-0.1-0.1-0.1-0.1-0.5-0.2-1.1-0.5-12.9-6.5v-20.1l4 2 1.2 0.6 1.2 0.6 6.4 3.2 1.1 0.5 1.1 0.5 12.8 6.4v21.4zm-102.7 7.3v-27.5l26.5 13.2 1.2 0.6 0.1 0.1v27.6l-26.5-13.2-1.2-0.6-0.1-0.2zm103.7-58l27.5 13.8-27.5 13.8-13.9-7-1.1-0.5-1.1-0.5-4-2-1.2-0.6-1.2-0.6-5.1-2.5 5.1-2.5 1.2-0.6 1.2-0.6 20.1-10.2zm-44.9 0l20.1 10-5.6 2.8s-0.1 0-0.1 0.1c0 0-0.1 0-0.1 0.1l-0.1 0.1s0 0.1-0.1 0.1c0 0.1-0.1 0.1-0.1 0.2v0.1 0.3 6.8l-13.9 7-27.6-13.8 27.5-13.8zm-57.5 28.8l26.5-13.2 1.1-0.6 19.1 9.5 8.5 4.2-26.5 13.3-1.1 0.5-1.1-0.5-0.3-0.1-26.2-13.1zm56.5 88.1l-26.5-13.2-1.2-0.6-0.1-0.1v-27.6l26.5 13.2 1.2 0.6 0.1 0.1v27.6zm2.1 0v-27.6l0.1-0.1 1.2-0.6 26.5-13.2v27.6l-0.1 0.1-1.2 0.6-26.5 13.2zm57.7-28.9l-27.8 13.9v-27.5l27.8-13.9v27.5zm15-44.9l-21.4 10.7-1.2 0.6-1.2 0.6-4 2v-27.6l27.8-13.9v27.6zm2.1-29.6c0-0.1-0.1-0.2-0.1-0.3l-0.1-0.1c0-0.1-0.1-0.1-0.1-0.1s-0.1 0-0.1-0.1l-0.1-0.1h-0.1l-29.9-15c-0.3-0.2-0.7-0.2-1 0l-22 11-22-11c-0.3-0.2-0.7-0.2-1 0l-29.9 15-29.9 15s-0.1 0-0.1 0.1c0 0-0.1 0-0.1 0.1l-0.1 0.1s0 0.1-0.1 0.1c0 0.1-0.1 0.1-0.1 0.2v0.1 0.3 59.8c0 0.4 0.2 0.8 0.6 1l29.9 15 29.9 15h0.1 0.1 0.3s0.2 0 0.3 0h0.1 0.1l29.9-15 29.9-15c0.4-0.2 0.6-0.6 0.6-1v-29.9-0.3-0.1c0-0.1 0-0.1-0.1-0.2 0 0 0-0.1-0.1-0.1l-0.1-0.1s-0.1 0-0.1-0.1l-0.1-0.1-5.6-2.8 20.5-10.3c0.4-0.2 0.6-0.6 0.6-1v-29.9-0.2"/>
</svg>
